# Blender 4.1.1
# www.blender.org
mtllib blade.mtl
o Cylinder
v 0.500000 0.500000 0.464218
v 0.500000 1.808717 0.464218
v 0.513693 0.500000 0.466942
v 0.513693 1.808717 0.466942
v 0.525301 0.500000 0.474699
v 0.525301 1.808717 0.474699
v 0.533058 0.500000 0.486307
v 0.533058 1.808717 0.486307
v 0.535782 0.500000 0.500000
v 0.535782 1.808717 0.500000
v 0.533058 0.500000 0.513693
v 0.533058 1.808717 0.513693
v 0.525301 0.500000 0.525301
v 0.525301 1.808717 0.525301
v 0.513693 0.500000 0.533058
v 0.513693 1.808717 0.533058
v 0.500000 0.500000 0.535782
v 0.500000 1.808717 0.535782
v 0.486307 0.500000 0.533058
v 0.486307 1.808717 0.533058
v 0.474699 0.500000 0.525301
v 0.474699 1.808717 0.525301
v 0.466942 0.500000 0.513693
v 0.466942 1.808717 0.513693
v 0.464218 0.500000 0.500000
v 0.464218 1.808717 0.500000
v 0.466942 0.500000 0.486307
v 0.466942 1.808717 0.486307
v 0.474699 0.500000 0.474699
v 0.474699 1.808717 0.474699
v 0.486307 0.500000 0.466942
v 0.486307 1.808717 0.466942
v 0.500000 1.922400 0.500000
vn -0.0000 -0.0000 -1.0000
vn 0.3827 -0.0000 -0.9239
vn 0.7071 -0.0000 -0.7071
vn 0.9239 -0.0000 -0.3827
vn 1.0000 -0.0000 -0.0000
vn 0.9239 -0.0000 0.3827
vn 0.7071 -0.0000 0.7071
vn 0.3827 -0.0000 0.9239
vn -0.0000 -0.0000 1.0000
vn -0.3827 -0.0000 0.9239
vn -0.7071 -0.0000 0.7071
vn -0.9239 -0.0000 0.3827
vn -1.0000 -0.0000 -0.0000
vn -0.9239 -0.0000 -0.3827
vn -0.7071 -0.0000 -0.7071
vn 0.9539 0.3002 -0.0000
vn 0.8813 0.3002 -0.3650
vn -0.0000 1.0000 -0.0000
vn -0.3827 -0.0000 -0.9239
vn -0.0000 -1.0000 -0.0000
vn -0.3650 0.3002 0.8813
vn -0.0000 0.3002 0.9539
vn -0.6745 0.3002 -0.6745
vn -0.8813 0.3002 -0.3650
vn 0.6745 0.3002 -0.6745
vn 0.3650 0.3002 -0.8813
vn 0.3650 0.3002 0.8813
vn 0.6745 0.3002 0.6745
vn -0.9539 0.3002 -0.0000
vn -0.8813 0.3002 0.3650
vn 0.8813 0.3002 0.3650
vn -0.6745 0.3002 0.6745
vn -0.3650 0.3002 -0.8813
vn -0.0000 0.3002 -0.9539
vt 1.000000 0.500000
vt 1.000000 1.000000
vt 0.937500 1.000000
vt 0.937500 0.500000
vt 0.875000 1.000000
vt 0.875000 0.500000
vt 0.812500 1.000000
vt 0.812500 0.500000
vt 0.750000 1.000000
vt 0.750000 0.500000
vt 0.687500 1.000000
vt 0.687500 0.500000
vt 0.625000 1.000000
vt 0.625000 0.500000
vt 0.562500 1.000000
vt 0.562500 0.500000
vt 0.500000 1.000000
vt 0.500000 0.500000
vt 0.437500 1.000000
vt 0.437500 0.500000
vt 0.375000 1.000000
vt 0.375000 0.500000
vt 0.312500 1.000000
vt 0.312500 0.500000
vt 0.250000 1.000000
vt 0.250000 0.500000
vt 0.187500 1.000000
vt 0.187500 0.500000
vt 0.125000 1.000000
vt 0.125000 0.500000
vt 0.062500 1.000000
vt 0.062500 0.500000
vt 0.000000 1.000000
vt 0.000000 0.500000
vt 0.750000 0.490000
vt 0.841844 0.471731
vt 0.919706 0.419706
vt 0.971731 0.341844
vt 0.990000 0.250000
vt 0.971731 0.158156
vt 0.919706 0.080294
vt 0.841844 0.028269
vt 0.750000 0.010000
vt 0.658156 0.028269
vt 0.580294 0.080294
vt 0.528269 0.158156
vt 0.510000 0.250000
vt 0.528269 0.341844
vt 0.580294 0.419706
vt 0.658156 0.471731
s 1
usemtl Material
f 1/1/1 2/2/1 4/3/2 3/4/2
f 3/4/2 4/3/2 6/5/3 5/6/3
f 5/6/3 6/5/3 8/7/4 7/8/4
f 7/8/4 8/7/4 10/9/5 9/10/5
f 9/10/5 10/9/5 12/11/6 11/12/6
f 11/12/6 12/11/6 14/13/7 13/14/7
f 13/14/7 14/13/7 16/15/8 15/16/8
f 15/16/8 16/15/8 18/17/9 17/18/9
f 17/18/9 18/17/9 20/19/10 19/20/10
f 19/20/10 20/19/10 22/21/11 21/22/11
f 21/22/11 22/21/11 24/23/12 23/24/12
f 23/24/12 24/23/12 26/25/13 25/26/13
f 25/26/13 26/25/13 28/27/14 27/28/14
f 27/28/14 28/27/14 30/29/15 29/30/15
f 10/9/16 8/7/17 33/9/18
f 29/30/15 30/29/15 32/31/19 31/32/19
f 31/32/19 32/31/19 2/33/1 1/34/1
f 1/35/20 3/36/20 5/37/20 7/38/20 9/39/20 11/40/20 13/41/20 15/42/20 17/43/20 19/44/20 21/45/20 23/46/20 25/47/20 27/48/20 29/49/20 31/50/20
f 20/19/21 18/17/22 33/19/18
f 30/29/23 28/27/24 33/29/18
f 6/5/25 4/3/26 33/5/18
f 16/15/27 14/13/28 33/15/18
f 26/25/29 24/23/30 33/25/18
f 12/11/31 10/9/16 33/11/18
f 22/21/32 20/19/21 33/21/18
f 32/31/33 30/29/23 33/31/18
f 8/7/17 6/5/25 33/7/18
f 18/17/22 16/15/27 33/17/18
f 28/27/24 26/25/29 33/27/18
f 4/3/26 2/2/34 33/3/18
f 14/13/28 12/11/31 33/13/18
f 24/23/30 22/21/32 33/23/18
f 2/33/34 32/31/33 33/33/18
