# Blender 4.1.1
# www.blender.org
mtllib blade.mtl
o Cylinder
v 0.000000 -0.000000 -0.035782
v 0.000000 1.308717 -0.035782
v 0.013693 -0.000000 -0.033058
v 0.013693 1.308717 -0.033058
v 0.025301 -0.000000 -0.025301
v 0.025301 1.308717 -0.025301
v 0.033058 -0.000000 -0.013693
v 0.033058 1.308717 -0.013693
v 0.035782 0.000000 0.000000
v 0.035782 1.308717 -0.000000
v 0.033058 0.000000 0.013693
v 0.033058 1.308717 0.013693
v 0.025301 0.000000 0.025301
v 0.025301 1.308717 0.025301
v 0.013693 0.000000 0.033058
v 0.013693 1.308717 0.033058
v 0.000000 0.000000 0.035782
v 0.000000 1.308717 0.035782
v -0.013693 0.000000 0.033058
v -0.013693 1.308717 0.033058
v -0.025301 0.000000 0.025301
v -0.025301 1.308717 0.025301
v -0.033058 0.000000 0.013693
v -0.033058 1.308717 0.013693
v -0.035782 0.000000 0.000000
v -0.035782 1.308717 -0.000000
v -0.033058 -0.000000 -0.013693
v -0.033058 1.308717 -0.013693
v -0.025301 -0.000000 -0.025301
v -0.025301 1.308717 -0.025301
v -0.013693 -0.000000 -0.033058
v -0.013693 1.308717 -0.033058
v 0.000000 1.361367 -0.000000
v 0.000000 0.000000 0.000000
vn 0.8858 0.2843 -0.3669
vn 0.9239 -0.0000 -0.3827
vn 0.7071 -0.0000 -0.7071
vn 0.6779 0.2843 -0.6779
vn -0.8858 0.2843 -0.3669
vn -0.9239 -0.0000 -0.3827
vn -1.0000 -0.0000 -0.0000
vn -0.9587 0.2843 -0.0000
vn 0.8858 0.2843 0.3669
vn 0.9239 -0.0000 0.3827
vn 1.0000 -0.0000 -0.0000
vn 0.9587 0.2843 -0.0000
vn 0.6779 0.2843 0.6779
vn 0.7071 -0.0000 0.7071
vn -0.0000 0.2843 -0.9587
vn -0.0000 -0.0000 -1.0000
vn -0.3827 -0.0000 -0.9239
vn -0.3669 0.2843 -0.8858
vn -0.3669 0.2843 0.8858
vn -0.3827 -0.0000 0.9239
vn -0.0000 -0.0000 1.0000
vn -0.0000 0.2843 0.9587
vn 0.3827 -0.0000 -0.9239
vn 0.3669 0.2843 -0.8858
vn -0.6779 0.2843 -0.6779
vn -0.7071 -0.0000 -0.7071
vn -0.9239 -0.0000 0.3827
vn -0.8858 0.2843 0.3669
vn -0.6779 0.2843 0.6779
vn -0.7071 -0.0000 0.7071
vn -0.0000 1.0000 -0.0000
vn 0.3827 -0.0000 0.9239
vn 0.3669 0.2843 0.8858
vn -0.0000 -1.0000 -0.0000
vt 0.000000 0.961325
vt 0.000000 -0.000000
vt 0.007252 0.000000
vt 0.007252 0.961325
vt 0.158043 0.046510
vt 0.150830 0.833215
vt 0.140575 0.833121
vt 0.147788 0.046416
vt 0.104200 0.786705
vt 0.111413 0.000000
vt 0.121668 0.000094
vt 0.114455 0.786799
vt 0.094706 0.788873
vt 0.101918 0.002169
vt 0.026982 0.961325
vt 0.026982 0.000000
vt 0.036457 0.000000
vt 0.036457 0.961325
vt 0.070689 0.038675
vt 0.070689 1.000000
vt 0.060434 1.000000
vt 0.060434 0.038675
vt 0.016727 0.000000
vt 0.016727 0.961325
vt 0.167537 0.044341
vt 0.160325 0.831046
vt 0.131121 0.830778
vt 0.138334 0.044074
vt 0.131121 0.002436
vt 0.123909 0.789141
vt 0.043708 0.000000
vt 0.043708 0.961325
vt 0.080164 0.038675
vt 0.080163 1.000000
vt 0.108901 0.833215
vt 0.050959 1.000000
vt 0.050959 0.038675
vt 0.043708 1.000000
vt 0.043708 0.038675
vt 0.156900 0.858993
vt 0.142296 0.837139
vt 0.151771 0.833215
vt 0.162026 0.833215
vt 0.065562 0.000000
vt 0.153342 -0.000000
vt 0.021854 1.000000
vt 0.087416 0.792973
vt 0.174827 0.040241
vt 0.131121 0.793375
vt 0.131121 0.039840
vt 0.131121 0.853867
vt 0.135045 0.844392
vt 0.178753 0.844389
vt 0.182678 0.853864
vt 0.182678 0.864119
vt 0.151773 0.884771
vt 0.171503 0.880847
vt 0.162029 0.884771
vt 0.142298 0.880848
vt 0.135046 0.873597
vt 0.171501 0.837138
vt 0.178754 0.873594
vt 0.131121 0.864122
vt 0.087416 0.038675
vt 0.087416 1.000000
s 1
usemtl Material.001
f 8/1/1 7/2/2 5/3/3 6/4/4
f 28/5/5 27/6/6 25/7/7 26/8/8
f 12/9/9 11/10/10 9/11/11 10/12/12
f 14/13/13 13/14/14 11/10/10 12/9/9
f 2/15/15 1/16/16 31/17/17 32/18/18
f 20/19/19 19/20/20 17/21/21 18/22/22
f 6/4/4 5/3/3 3/23/23 4/24/24
f 30/25/25 29/26/26 27/6/6 28/5/5
f 4/24/24 3/23/23 1/16/16 2/15/15
f 26/8/8 25/7/7 23/27/27 24/28/28
f 10/12/12 9/11/11 7/29/2 8/30/1
f 32/18/18 31/17/17 29/31/26 30/32/25
f 22/33/29 21/34/30 19/20/20 20/19/19
f 10/12/12 8/30/1 33/35/31
f 18/22/22 17/21/21 15/36/32 16/37/33
f 16/37/33 15/36/32 13/38/14 14/39/13
f 34/40/34 9/41/34 11/42/34 13/43/34
f 20/19/19 18/22/22 33/44/31
f 30/25/25 28/5/5 33/45/31
f 6/4/4 4/24/24 33/46/31
f 16/47/33 14/13/13 33/35/31
f 26/8/8 24/28/28 33/45/31
f 12/9/9 10/12/12 33/35/31
f 22/33/29 20/19/19 33/44/31
f 32/48/18 30/25/25 33/45/31
f 8/30/1 6/49/4 33/35/31
f 18/22/22 16/37/33 33/44/31
f 28/5/5 26/8/8 33/45/31
f 4/24/24 2/15/15 33/46/31
f 14/13/13 12/9/9 33/35/31
f 24/28/28 22/50/29 33/45/31
f 2/15/15 32/18/18 33/46/31
f 34/40/34 5/51/34 7/52/34 9/41/34
f 34/40/34 17/53/34 19/54/34 21/55/34
f 29/56/34 34/40/34 25/57/34 27/58/34
f 31/59/34 1/60/34 34/40/34 29/56/34
f 17/53/34 34/40/34 13/43/34 15/61/34
f 25/57/34 34/40/34 21/55/34 23/62/34
f 1/60/34 3/63/34 5/51/34 34/40/34
f 24/64/28 23/65/27 21/34/30 22/33/29
