# Blender 4.1.1
# www.blender.org
mtllib test_switch.mtl
o switch.001
v 0.500000 0.500000 0.552978
v 0.489664 0.500000 0.551960
v 0.479726 0.500000 0.548946
v 0.470567 0.500000 0.544050
v 0.462538 0.500000 0.537462
v 0.455950 0.500000 0.529433
v 0.451055 0.500000 0.520274
v 0.448040 0.500000 0.510336
v 0.447022 0.500000 0.500000
v 0.448040 0.500000 0.489665
v 0.451055 0.500000 0.479727
v 0.455950 0.500000 0.470567
v 0.462538 0.500000 0.462539
v 0.470567 0.500000 0.455951
v 0.479726 0.500000 0.451055
v 0.489664 0.500000 0.448040
v 0.500000 0.500000 0.447022
v 0.510336 0.500000 0.448040
v 0.520274 0.500000 0.451055
v 0.529433 0.500000 0.455951
v 0.537462 0.500000 0.462539
v 0.544050 0.500000 0.470567
v 0.548945 0.500000 0.479727
v 0.551960 0.500000 0.489665
v 0.552978 0.500000 0.500000
v 0.551960 0.500000 0.510336
v 0.548945 0.500000 0.520274
v 0.544050 0.500000 0.529434
v 0.537462 0.500000 0.537462
v 0.529433 0.500000 0.544050
v 0.520274 0.500000 0.548946
v 0.510336 0.500000 0.551960
v 0.500000 0.642542 0.552978
v 0.489664 0.642542 0.551960
v 0.479726 0.642542 0.548946
v 0.470567 0.642542 0.544050
v 0.462538 0.642542 0.537461
v 0.455950 0.642542 0.529433
v 0.451055 0.642542 0.520274
v 0.448040 0.642542 0.510336
v 0.447022 0.642542 0.500000
v 0.448040 0.642542 0.489665
v 0.451055 0.642542 0.479726
v 0.455950 0.642542 0.470567
v 0.462538 0.642542 0.462539
v 0.470567 0.642542 0.455950
v 0.479726 0.642542 0.451055
v 0.489664 0.642542 0.448040
v 0.500000 0.642542 0.447022
v 0.510336 0.642542 0.448040
v 0.520274 0.642542 0.451055
v 0.529433 0.642542 0.455950
v 0.537462 0.642542 0.462539
v 0.544050 0.642542 0.470567
v 0.548945 0.642542 0.479726
v 0.551960 0.642542 0.489665
v 0.552978 0.642542 0.500000
v 0.551960 0.642542 0.510336
v 0.548945 0.642542 0.520274
v 0.544050 0.642542 0.529433
v 0.537462 0.642542 0.537461
v 0.529433 0.642542 0.544050
v 0.520274 0.642542 0.548946
v 0.510336 0.642542 0.551960
v 0.500000 0.642542 0.575911
v 0.485191 0.642542 0.574453
v 0.470950 0.642542 0.570133
v 0.457826 0.642542 0.563118
v 0.446323 0.642542 0.553677
v 0.436882 0.642542 0.542174
v 0.429868 0.642542 0.529050
v 0.425547 0.642542 0.514810
v 0.424089 0.642542 0.500000
v 0.425547 0.642542 0.485191
v 0.429868 0.642542 0.470950
v 0.436882 0.642542 0.457826
v 0.446323 0.642542 0.446323
v 0.457826 0.642542 0.436883
v 0.470950 0.642542 0.429867
v 0.485191 0.642542 0.425548
v 0.500000 0.642542 0.424089
v 0.514809 0.642542 0.425548
v 0.529050 0.642542 0.429867
v 0.542174 0.642542 0.436883
v 0.553677 0.642542 0.446323
v 0.563118 0.642542 0.457826
v 0.570132 0.642542 0.470950
v 0.574453 0.642542 0.485191
v 0.575911 0.642542 0.500000
v 0.574453 0.642542 0.514810
v 0.570132 0.642542 0.529050
v 0.563118 0.642542 0.542174
v 0.553677 0.642542 0.553677
v 0.542174 0.642542 0.563118
v 0.529050 0.642542 0.570133
v 0.514809 0.642542 0.574453
v 0.485191 0.682134 0.574452
v 0.500000 0.682134 0.575911
v 0.470950 0.682134 0.570133
v 0.457826 0.682134 0.563118
v 0.446323 0.682134 0.553677
v 0.436882 0.682134 0.542174
v 0.429868 0.682134 0.529050
v 0.425547 0.682134 0.514810
v 0.424089 0.682134 0.500000
v 0.425547 0.682134 0.485191
v 0.429868 0.682134 0.470950
v 0.436882 0.682134 0.457826
v 0.446323 0.682134 0.446323
v 0.457826 0.682134 0.436882
v 0.470950 0.682134 0.429867
v 0.485191 0.682134 0.425548
v 0.500000 0.682134 0.424089
v 0.514809 0.682134 0.425548
v 0.529050 0.682134 0.429867
v 0.542174 0.682134 0.436882
v 0.553677 0.682134 0.446323
v 0.563118 0.682134 0.457826
v 0.570132 0.682134 0.470950
v 0.574453 0.682134 0.485191
v 0.575911 0.682134 0.500000
v 0.574453 0.682134 0.514810
v 0.570132 0.682134 0.529050
v 0.563118 0.682134 0.542174
v 0.553677 0.682134 0.553677
v 0.542174 0.682134 0.563118
v 0.529050 0.682134 0.570133
v 0.514809 0.682134 0.574452
v 0.474025 0.501851 0.532036
v 0.474025 0.501852 0.558154
v 0.474025 0.646696 0.532036
v 0.474025 0.646696 0.558154
v 0.525975 0.501851 0.532036
v 0.525975 0.501852 0.558154
v 0.525975 0.646696 0.532036
v 0.525975 0.646696 0.558154
v 0.500000 0.583957 0.551024
v 0.500000 0.583957 0.563069
v 0.503811 0.583199 0.551024
v 0.503811 0.583199 0.563069
v 0.507041 0.581041 0.551024
v 0.507041 0.581041 0.563069
v 0.509198 0.577811 0.551024
v 0.509198 0.577811 0.563069
v 0.509956 0.574001 0.551024
v 0.509956 0.574001 0.563069
v 0.509198 0.570191 0.551024
v 0.509198 0.570191 0.563069
v 0.507041 0.566961 0.551024
v 0.507041 0.566961 0.563069
v 0.503811 0.564802 0.551024
v 0.503811 0.564802 0.563069
v 0.500000 0.564044 0.551024
v 0.500000 0.564044 0.563069
v 0.496190 0.564802 0.551024
v 0.496190 0.564802 0.563069
v 0.492960 0.566961 0.551024
v 0.492960 0.566961 0.563069
v 0.490802 0.570191 0.551024
v 0.490802 0.570191 0.563069
v 0.490044 0.574001 0.551024
v 0.490044 0.574001 0.563069
v 0.490802 0.577811 0.551024
v 0.490802 0.577811 0.563069
v 0.492960 0.581041 0.551024
v 0.492960 0.581041 0.563069
v 0.496190 0.583199 0.551024
v 0.496190 0.583199 0.563069
v 0.500000 0.620204 0.551024
v 0.500000 0.620204 0.563069
v 0.503811 0.619446 0.551024
v 0.503811 0.619446 0.563069
v 0.507041 0.617288 0.551024
v 0.507041 0.617288 0.563069
v 0.509198 0.614058 0.551024
v 0.509198 0.614058 0.563069
v 0.509956 0.610248 0.551024
v 0.509956 0.610248 0.563069
v 0.509198 0.606438 0.551024
v 0.509198 0.606438 0.563069
v 0.507041 0.603208 0.551024
v 0.507041 0.603208 0.563069
v 0.503811 0.601049 0.551024
v 0.503811 0.601049 0.563069
v 0.500000 0.600291 0.551024
v 0.500000 0.600291 0.563069
v 0.496190 0.601049 0.551024
v 0.496190 0.601049 0.563069
v 0.492960 0.603208 0.551024
v 0.492960 0.603208 0.563069
v 0.490802 0.606438 0.551024
v 0.490802 0.606438 0.563069
v 0.490044 0.610248 0.551024
v 0.490044 0.610248 0.563069
v 0.490802 0.614058 0.551024
v 0.490802 0.614058 0.563069
v 0.492960 0.617288 0.551024
v 0.492960 0.617288 0.563069
v 0.496190 0.619446 0.551024
v 0.496190 0.619446 0.563069
vn -0.0000 -1.0000 -0.0000
vn 0.1951 -0.0000 0.9808
vn -0.0000 -0.0000 1.0000
vn 0.3827 -0.0000 0.9239
vn 0.5556 -0.0000 0.8315
vn 0.7071 -0.0000 0.7071
vn 0.8315 -0.0000 0.5556
vn 0.9239 -0.0000 0.3827
vn 0.9808 -0.0000 0.1951
vn 1.0000 -0.0000 -0.0000
vn 0.9808 -0.0000 -0.1951
vn 0.9239 -0.0000 -0.3827
vn 0.8315 -0.0000 -0.5556
vn 0.7071 -0.0000 -0.7071
vn 0.5556 -0.0000 -0.8315
vn 0.3827 -0.0000 -0.9239
vn 0.1951 -0.0000 -0.9808
vn -0.0000 -0.0000 -1.0000
vn -0.1951 -0.0000 -0.9808
vn -0.3827 -0.0000 -0.9239
vn -0.5555 -0.0000 -0.8315
vn -0.7071 -0.0000 -0.7071
vn -0.8315 -0.0000 -0.5556
vn -0.9239 -0.0000 -0.3827
vn -0.9808 -0.0000 -0.1951
vn -1.0000 -0.0000 -0.0000
vn -0.9808 -0.0000 0.1951
vn -0.9239 -0.0000 0.3827
vn -0.8315 -0.0000 0.5556
vn -0.7071 -0.0000 0.7071
vn -0.5556 -0.0000 0.8315
vn -0.3827 -0.0000 0.9239
vn -0.1951 -0.0000 0.9808
vn -0.5556 -0.0000 -0.8315
vn -0.0000 1.0000 -0.0000
vn 0.3827 0.9239 -0.0000
vn 0.7071 0.7071 -0.0000
vn 0.9239 0.3827 -0.0000
vn 0.9239 -0.3827 -0.0000
vn 0.7071 -0.7071 -0.0000
vn 0.3827 -0.9239 -0.0000
vn -0.3827 -0.9239 -0.0000
vn -0.7071 -0.7071 -0.0000
vn -0.9239 -0.3827 -0.0000
vn -0.9239 0.3827 -0.0000
vn -0.7071 0.7071 -0.0000
vn -0.3827 0.9239 -0.0000
vt 0.054871 0.198085
vt 0.059742 0.223076
vt 0.006980 0.239408
vt 0.000000 0.203600
vt 0.100826 0.084871
vt 0.083170 0.102888
vt 0.040549 0.067195
vt 0.065848 0.041378
vt 0.303519 0.223076
vt 0.308391 0.198086
vt 0.363262 0.203601
vt 0.356282 0.239409
vt 0.069298 0.246617
vt 0.020672 0.273139
vt 0.069298 0.124074
vt 0.020672 0.097551
vt 0.308391 0.172606
vt 0.363262 0.167091
vt 0.293964 0.246617
vt 0.342590 0.273140
vt 0.121588 0.070715
vt 0.095597 0.021094
vt 0.054871 0.172605
vt 0.000000 0.167091
vt 0.280092 0.267803
vt 0.322713 0.303497
vt 0.144656 0.060964
vt 0.128651 0.007123
vt 0.262435 0.285820
vt 0.297414 0.329313
vt 0.169146 0.055993
vt 0.163742 0.000000
vt 0.241674 0.299976
vt 0.267665 0.349597
vt 0.194116 0.055993
vt 0.199520 0.000000
vt 0.218605 0.309727
vt 0.234610 0.363568
vt 0.218605 0.060964
vt 0.234611 0.007123
vt 0.194115 0.314698
vt 0.199520 0.370691
vt 0.241674 0.070715
vt 0.267665 0.021095
vt 0.169146 0.314698
vt 0.163742 0.370691
vt 0.262436 0.084871
vt 0.297414 0.041378
vt 0.144656 0.309727
vt 0.128651 0.363568
vt 0.280092 0.102888
vt 0.322713 0.067195
vt 0.121587 0.299976
vt 0.095596 0.349596
vt 0.293964 0.124074
vt 0.342590 0.097552
vt 0.100826 0.285820
vt 0.065848 0.329313
vt 0.303519 0.147615
vt 0.356282 0.131282
vt 0.059742 0.147615
vt 0.006980 0.131282
vt 0.083170 0.267803
vt 0.040549 0.303496
vt 0.762459 0.000000
vt 0.762459 0.349718
vt 0.737610 0.349718
vt 0.737610 0.000000
vt 0.786354 0.000000
vt 0.786354 0.349718
vt 0.808375 0.000000
vt 0.808375 0.349718
vt 0.827677 0.000000
vt 0.827677 0.349718
vt 0.394055 0.367094
vt 0.394055 0.716812
vt 0.374754 0.716812
vt 0.374754 0.367094
vt 0.416077 0.367094
vt 0.416077 0.716812
vt 0.439971 0.367094
vt 0.439971 0.716812
vt 0.464820 0.367094
vt 0.464820 0.716812
vt 0.489670 0.367094
vt 0.489669 0.716812
vt 0.513564 0.367094
vt 0.513564 0.716812
vt 0.535585 0.367094
vt 0.535585 0.716812
vt 0.554887 0.367094
vt 0.554887 0.716812
vt 0.585681 0.367094
vt 0.585681 0.716812
vt 0.566379 0.716812
vt 0.566379 0.367094
vt 0.607702 0.367094
vt 0.607702 0.716812
vt 0.631596 0.367094
vt 0.631596 0.716812
vt 0.656445 0.367094
vt 0.656445 0.716812
vt 0.681295 0.367094
vt 0.681295 0.716812
vt 0.705189 0.367094
vt 0.705189 0.716812
vt 0.727210 0.367094
vt 0.727210 0.716812
vt 0.746512 0.367094
vt 0.746512 0.716812
vt 0.858470 0.000000
vt 0.858470 0.349718
vt 0.839169 0.349718
vt 0.839169 0.000000
vt 0.880492 0.000000
vt 0.880492 0.349718
vt 0.904386 0.000000
vt 0.904386 0.349718
vt 0.929235 0.000000
vt 0.929235 0.349718
vt 0.954084 0.000000
vt 0.954084 0.349718
vt 0.977979 0.000000
vt 0.977979 0.349718
vt 1.000000 0.000000
vt 1.000000 0.349718
vt 0.910483 0.716812
vt 0.910483 0.367094
vt 0.925878 0.367094
vt 0.925878 0.716812
vt 0.666845 0.000000
vt 0.666845 0.349718
vt 0.647544 0.349718
vt 0.647544 0.000000
vt 0.674915 0.000000
vt 0.674915 0.349718
vt 0.664520 0.349718
vt 0.664520 0.000000
vt 0.712761 0.000000
vt 0.712761 0.349718
vt 0.688867 0.349718
vt 0.688867 0.000000
vt 0.864686 0.865881
vt 0.959876 0.865881
vt 0.959876 0.902215
vt 0.864686 0.902215
vt 0.959876 0.937153
vt 0.864686 0.937153
vt 0.959876 0.969352
vt 0.864686 0.969352
vt 0.959876 0.997575
vt 0.864686 0.997575
vt 0.255255 0.861973
vt 0.255255 0.764836
vt 0.282912 0.764836
vt 0.282912 0.861973
vt 0.000000 0.764836
vt 0.095190 0.764836
vt 0.095190 0.797035
vt 0.000000 0.797035
vt 0.095190 0.831973
vt 0.000000 0.831973
vt 0.095190 0.868307
vt 0.000000 0.868307
vt 0.095190 0.904641
vt 0.000000 0.904641
vt 0.095190 0.939579
vt 0.000000 0.939579
vt 0.095190 0.971777
vt 0.000000 0.971777
vt 0.095190 1.000000
vt 0.000000 1.000000
vt 0.639766 0.728539
vt 0.734956 0.728539
vt 0.734956 0.756762
vt 0.639766 0.756762
vt 0.734956 0.788961
vt 0.639766 0.788961
vt 0.734956 0.823899
vt 0.639766 0.823899
vt 0.734956 0.860233
vt 0.639766 0.860233
vt 0.734956 0.896567
vt 0.639766 0.896567
vt 0.734956 0.931505
vt 0.639766 0.931505
vt 0.734956 0.963703
vt 0.639766 0.963703
vt 0.734956 0.991926
vt 0.639766 0.991926
vt 0.853194 0.997575
vt 0.758004 0.997575
vt 0.758004 0.969352
vt 0.853194 0.969352
vt 0.758004 0.937153
vt 0.853194 0.937153
vt 0.758004 0.902216
vt 0.853194 0.902216
vt 0.758004 0.865882
vt 0.853194 0.865882
vt 0.758004 0.829548
vt 0.853194 0.829548
vt 0.758004 0.794610
vt 0.853194 0.794610
vt 0.758004 0.762411
vt 0.853194 0.762411
vt 0.758004 0.734188
vt 0.853194 0.734188
vt 0.864686 0.734188
vt 0.959876 0.734188
vt 0.959876 0.762411
vt 0.864686 0.762411
vt 0.959876 0.794610
vt 0.864686 0.794610
vt 0.959876 0.829548
vt 0.864686 0.829548
vt 0.597386 0.830925
vt 0.601217 0.850578
vt 0.401848 0.870616
vt 0.401848 0.850578
vt 0.820798 0.722461
vt 0.758004 0.722461
vt 0.758004 0.367094
vt 0.820798 0.367094
vt 0.169476 0.892294
vt 0.106682 0.892294
vt 0.106682 0.764836
vt 0.169476 0.764836
vt 0.895085 0.722461
vt 0.832290 0.722461
vt 0.832290 0.367094
vt 0.895085 0.367094
vt 0.499657 0.355367
vt 0.374754 0.355367
vt 0.374754 0.000000
vt 0.499657 0.000000
vt 0.636052 0.355367
vt 0.511149 0.355367
vt 0.511149 0.000000
vt 0.636052 0.000000
vt 0.274989 0.921293
vt 0.246031 0.921293
vt 0.246031 0.911945
vt 0.274989 0.911945
vt 0.246031 0.904021
vt 0.274989 0.904021
vt 0.274989 0.984839
vt 0.246031 0.984839
vt 0.246031 0.976914
vt 0.274989 0.976914
vt 0.246031 0.967566
vt 0.274989 0.967566
vt 0.246031 0.958218
vt 0.274989 0.958218
vt 0.246031 0.950293
vt 0.274989 0.950293
vt 0.323362 0.978311
vt 0.294404 0.978311
vt 0.294404 0.970386
vt 0.323362 0.970386
vt 0.294404 0.961038
vt 0.323362 0.961038
vt 0.294404 0.951690
vt 0.323362 0.951690
vt 0.294404 0.943766
vt 0.323362 0.943766
vt 0.966329 0.401640
vt 0.937371 0.401640
vt 0.937371 0.393715
vt 0.966329 0.393715
vt 0.937371 0.384367
vt 0.966329 0.384367
vt 0.937371 0.375019
vt 0.966329 0.375019
vt 0.937371 0.367094
vt 0.966329 0.367094
vt 0.304583 0.928391
vt 0.297978 0.921651
vt 0.294404 0.912846
vt 0.294404 0.903315
vt 0.297978 0.894509
vt 0.304583 0.887770
vt 0.313212 0.884122
vt 0.322552 0.884122
vt 0.331181 0.887770
vt 0.337785 0.894509
vt 0.341359 0.903315
vt 0.341359 0.912846
vt 0.337785 0.921651
vt 0.331181 0.928391
vt 0.322552 0.932038
vt 0.313212 0.932038
vt 0.274989 0.938566
vt 0.246031 0.938566
vt 0.246031 0.930641
vt 0.274989 0.930641
vt 0.110257 0.941550
vt 0.106682 0.932744
vt 0.106682 0.923213
vt 0.110256 0.914408
vt 0.116861 0.907668
vt 0.125490 0.904021
vt 0.134830 0.904021
vt 0.143459 0.907668
vt 0.150064 0.914408
vt 0.153638 0.923213
vt 0.153638 0.932744
vt 0.150064 0.941550
vt 0.143459 0.948289
vt 0.134830 0.951937
vt 0.125490 0.951937
vt 0.116861 0.948289
vt 0.194088 0.967566
vt 0.165130 0.967566
vt 0.165130 0.958218
vt 0.194088 0.958218
vt 0.165130 0.950293
vt 0.194088 0.950293
vt 0.194088 0.938566
vt 0.165130 0.938566
vt 0.165130 0.930641
vt 0.194088 0.930641
vt 0.165130 0.921293
vt 0.194088 0.921293
vt 0.165130 0.911946
vt 0.194088 0.911946
vt 0.165130 0.904021
vt 0.194088 0.904021
vt 0.234539 0.984839
vt 0.205580 0.984839
vt 0.205580 0.976914
vt 0.234539 0.976914
vt 0.205580 0.967566
vt 0.234539 0.967566
vt 0.205580 0.958218
vt 0.234539 0.958218
vt 0.205580 0.950293
vt 0.234539 0.950293
vt 0.234539 0.938566
vt 0.205580 0.938566
vt 0.205580 0.930641
vt 0.234539 0.930641
vt 0.205580 0.921293
vt 0.234539 0.921293
vt 0.205580 0.911946
vt 0.234539 0.911946
vt 0.205580 0.904021
vt 0.234539 0.904021
vt 0.356124 0.777569
vt 0.356124 0.787100
vt 0.352550 0.795906
vt 0.345945 0.802645
vt 0.337316 0.806293
vt 0.327976 0.806293
vt 0.319347 0.802645
vt 0.312743 0.795906
vt 0.309169 0.787100
vt 0.309169 0.777569
vt 0.312743 0.768764
vt 0.319347 0.762024
vt 0.327976 0.758377
vt 0.337316 0.758377
vt 0.345945 0.762024
vt 0.352550 0.768764
vt 0.194088 0.984839
vt 0.165130 0.984839
vt 0.165130 0.976914
vt 0.194088 0.976914
vt 0.341359 0.853203
vt 0.337785 0.862008
vt 0.331181 0.868748
vt 0.322552 0.872395
vt 0.313212 0.872395
vt 0.304583 0.868748
vt 0.297978 0.862008
vt 0.294404 0.853203
vt 0.294404 0.843672
vt 0.297978 0.834866
vt 0.304582 0.828127
vt 0.313212 0.824479
vt 0.322552 0.824479
vt 0.331181 0.828127
vt 0.337785 0.834866
vt 0.341359 0.843672
vt 0.589872 0.812413
vt 0.405679 0.830925
vt 0.578963 0.795752
vt 0.413193 0.812413
vt 0.565078 0.781583
vt 0.424103 0.795752
vt 0.548751 0.770451
vt 0.437987 0.781583
vt 0.530609 0.762783
vt 0.454314 0.770451
vt 0.511351 0.758873
vt 0.472456 0.762783
vt 0.491715 0.758873
vt 0.405679 0.890268
vt 0.601217 0.870615
vt 0.413193 0.908781
vt 0.597386 0.890268
vt 0.424103 0.925442
vt 0.589872 0.908781
vt 0.437987 0.939610
vt 0.578963 0.925441
vt 0.454314 0.950743
vt 0.565078 0.939610
vt 0.472456 0.958411
vt 0.548751 0.950743
vt 0.491715 0.962320
vt 0.530610 0.958411
vt 0.163742 0.753109
vt 0.234611 0.745986
vt 0.199520 0.753109
vt 0.613847 0.796620
vt 0.623402 0.820161
vt 0.379625 0.895622
vt 0.374754 0.870632
vt 0.599975 0.775434
vt 0.374754 0.845152
vt 0.582319 0.757417
vt 0.379625 0.820161
vt 0.561557 0.743261
vt 0.389181 0.796620
vt 0.538488 0.733510
vt 0.403053 0.775434
vt 0.513999 0.728539
vt 0.420709 0.757417
vt 0.489029 0.728539
vt 0.441470 0.743261
vt 0.464539 0.733510
vt 0.389181 0.919163
vt 0.628274 0.845152
vt 0.403053 0.940349
vt 0.628274 0.870632
vt 0.420709 0.958366
vt 0.623402 0.895622
vt 0.441470 0.972522
vt 0.613847 0.919163
vt 0.464539 0.982273
vt 0.599975 0.940349
vt 0.489029 0.987244
vt 0.582318 0.958366
vt 0.513999 0.987244
vt 0.561557 0.972522
vt 0.538488 0.982273
vt 0.243763 0.764836
vt 0.243763 0.892294
vt 0.219726 0.892294
vt 0.219726 0.764836
s 1
usemtl Material.004
f 64/1/1 63/2/1 95/3/1 96/4/1
f 37/5/1 36/6/1 68/7/1 69/8/1
f 50/9/1 49/10/1 81/11/1 82/12/1
f 63/2/1 62/13/1 94/14/1 95/3/1
f 36/6/1 35/15/1 67/16/1 68/7/1
f 49/10/1 48/17/1 80/18/1 81/11/1
f 51/19/1 50/9/1 82/12/1 83/20/1
f 38/21/1 37/5/1 69/8/1 70/22/1
f 33/23/1 64/1/1 96/4/1 65/24/1
f 52/25/1 51/19/1 83/20/1 84/26/1
f 39/27/1 38/21/1 70/22/1 71/28/1
f 53/29/1 52/25/1 84/26/1 85/30/1
f 40/31/1 39/27/1 71/28/1 72/32/1
f 54/33/1 53/29/1 85/30/1 86/34/1
f 41/35/1 40/31/1 72/32/1 73/36/1
f 55/37/1 54/33/1 86/34/1 87/38/1
f 42/39/1 41/35/1 73/36/1 74/40/1
f 56/41/1 55/37/1 87/38/1 88/42/1
f 43/43/1 42/39/1 74/40/1 75/44/1
f 57/45/1 56/41/1 88/42/1 89/46/1
f 44/47/1 43/43/1 75/44/1 76/48/1
f 58/49/1 57/45/1 89/46/1 90/50/1
f 45/51/1 44/47/1 76/48/1 77/52/1
f 59/53/1 58/49/1 90/50/1 91/54/1
f 46/55/1 45/51/1 77/52/1 78/56/1
f 60/57/1 59/53/1 91/54/1 92/58/1
f 47/59/1 46/55/1 78/56/1 79/60/1
f 34/61/1 33/23/1 65/24/1 66/62/1
f 61/63/1 60/57/1 92/58/1 93/64/1
f 48/17/1 47/59/1 79/60/1 80/18/1
f 35/15/1 34/61/1 66/62/1 67/16/1
f 62/13/1 61/63/1 93/64/1 94/14/1
f 32/65/2 64/66/2 33/67/3 1/68/3
f 31/69/4 63/70/4 64/66/2 32/65/2
f 30/71/5 62/72/5 63/70/4 31/69/4
f 29/73/6 61/74/6 62/72/5 30/71/5
f 28/75/7 60/76/7 61/77/6 29/78/6
f 27/79/8 59/80/8 60/76/7 28/75/7
f 26/81/9 58/82/9 59/80/8 27/79/8
f 25/83/10 57/84/10 58/82/9 26/81/9
f 24/85/11 56/86/11 57/84/10 25/83/10
f 23/87/12 55/88/12 56/86/11 24/85/11
f 22/89/13 54/90/13 55/88/12 23/87/12
f 21/91/14 53/92/14 54/90/13 22/89/13
f 20/93/15 52/94/15 53/95/14 21/96/14
f 19/97/16 51/98/16 52/94/15 20/93/15
f 18/99/17 50/100/17 51/98/16 19/97/16
f 17/101/18 49/102/18 50/100/17 18/99/17
f 16/103/19 48/104/19 49/102/18 17/101/18
f 15/105/20 47/106/20 48/104/19 16/103/19
f 14/107/21 46/108/21 47/106/20 15/105/20
f 13/109/22 45/110/22 46/108/21 14/107/21
f 12/111/23 44/112/23 45/113/22 13/114/22
f 11/115/24 43/116/24 44/112/23 12/111/23
f 10/117/25 42/118/25 43/116/24 11/115/24
f 9/119/26 41/120/26 42/118/25 10/117/25
f 8/121/27 40/122/27 41/120/26 9/119/26
f 7/123/28 39/124/28 40/122/27 8/121/27
f 6/125/29 38/126/29 39/124/28 7/123/28
f 5/127/30 37/128/30 38/129/29 6/130/29
f 4/131/31 36/132/31 37/133/30 5/134/30
f 3/135/32 35/136/32 36/137/31 4/138/31
f 2/139/33 34/140/33 35/141/32 3/142/32
f 1/68/3 33/67/3 34/140/33 2/139/33
f 65/143/3 98/144/3 97/145/33 66/146/33
f 66/146/33 97/145/33 99/147/32 67/148/32
f 67/148/32 99/147/32 100/149/31 68/150/31
f 68/150/31 100/149/31 101/151/30 69/152/30
f 69/153/30 101/154/30 102/155/29 70/156/29
f 70/157/29 102/158/29 103/159/28 71/160/28
f 71/160/28 103/159/28 104/161/27 72/162/27
f 72/162/27 104/161/27 105/163/26 73/164/26
f 73/164/26 105/163/26 106/165/25 74/166/25
f 74/166/25 106/165/25 107/167/24 75/168/24
f 75/168/24 107/167/24 108/169/23 76/170/23
f 76/170/23 108/169/23 109/171/22 77/172/22
f 77/173/22 109/174/22 110/175/34 78/176/34
f 78/176/34 110/175/34 111/177/20 79/178/20
f 79/178/20 111/177/20 112/179/19 80/180/19
f 80/180/19 112/179/19 113/181/18 81/182/18
f 81/182/18 113/181/18 114/183/17 82/184/17
f 82/184/17 114/183/17 115/185/16 83/186/16
f 83/186/16 115/185/16 116/187/15 84/188/15
f 84/188/15 116/187/15 117/189/14 85/190/14
f 85/191/14 117/192/14 118/193/13 86/194/13
f 86/194/13 118/193/13 119/195/12 87/196/12
f 87/196/12 119/195/12 120/197/11 88/198/11
f 88/198/11 120/197/11 121/199/10 89/200/10
f 89/200/10 121/199/10 122/201/9 90/202/9
f 90/202/9 122/201/9 123/203/8 91/204/8
f 91/204/8 123/203/8 124/205/7 92/206/7
f 92/206/7 124/205/7 125/207/6 93/208/6
f 93/209/6 125/210/6 126/211/5 94/212/5
f 94/212/5 126/211/5 127/213/4 95/214/4
f 95/214/4 127/213/4 128/215/2 96/216/2
f 97/217/35 98/218/35 113/219/35 112/220/35
f 96/216/2 128/215/2 98/144/3 65/143/3
f 129/221/26 130/222/26 132/223/26 131/224/26
f 131/225/35 132/226/35 136/227/35 135/228/35
f 135/229/10 136/230/10 134/231/10 133/232/10
f 131/233/18 135/234/18 133/235/18 129/236/18
f 136/237/3 132/238/3 130/239/3 134/240/3
f 137/241/35 138/242/35 140/243/36 139/244/36
f 139/244/36 140/243/36 142/245/37 141/246/37
f 141/247/37 142/248/37 144/249/38 143/250/38
f 143/250/38 144/249/38 146/251/10 145/252/10
f 145/252/10 146/251/10 148/253/39 147/254/39
f 147/254/39 148/253/39 150/255/40 149/256/40
f 149/257/40 150/258/40 152/259/41 151/260/41
f 151/260/41 152/259/41 154/261/1 153/262/1
f 153/262/1 154/261/1 156/263/42 155/264/42
f 155/264/42 156/263/42 158/265/43 157/266/43
f 157/267/43 158/268/43 160/269/44 159/270/44
f 159/270/44 160/269/44 162/271/26 161/272/26
f 161/272/26 162/271/26 164/273/45 163/274/45
f 163/274/45 164/273/45 166/275/46 165/276/46
f 140/277/3 138/278/3 168/279/3 166/280/3 164/281/3 162/282/3 160/283/3 158/284/3 156/285/3 154/286/3 152/287/3 150/288/3 148/289/3 146/290/3 144/291/3 142/292/3
f 165/293/46 166/294/46 168/295/47 167/296/47
f 167/296/47 168/295/47 138/242/35 137/241/35
f 137/297/18 139/298/18 141/299/18 143/300/18 145/301/18 147/302/18 149/303/18 151/304/18 153/305/18 155/306/18 157/307/18 159/308/18 161/309/18 163/310/18 165/311/18 167/312/18
f 169/313/35 170/314/35 172/315/36 171/316/36
f 171/316/36 172/315/36 174/317/37 173/318/37
f 173/319/37 174/320/37 176/321/38 175/322/38
f 175/322/38 176/321/38 178/323/10 177/324/10
f 177/324/10 178/323/10 180/325/39 179/326/39
f 179/326/39 180/325/39 182/327/40 181/328/40
f 181/329/40 182/330/40 184/331/41 183/332/41
f 183/332/41 184/331/41 186/333/1 185/334/1
f 185/334/1 186/333/1 188/335/42 187/336/42
f 187/336/42 188/335/42 190/337/43 189/338/43
f 189/339/43 190/340/43 192/341/44 191/342/44
f 191/342/44 192/341/44 194/343/26 193/344/26
f 193/344/26 194/343/26 196/345/45 195/346/45
f 195/346/45 196/345/45 198/347/46 197/348/46
f 172/349/3 170/350/3 200/351/3 198/352/3 196/353/3 194/354/3 192/355/3 190/356/3 188/357/3 186/358/3 184/359/3 182/360/3 180/361/3 178/362/3 176/363/3 174/364/3
f 197/365/46 198/366/46 200/367/47 199/368/47
f 199/368/47 200/367/47 170/314/35 169/313/35
f 169/369/18 171/370/18 173/371/18 175/372/18 177/373/18 179/374/18 181/375/18 183/376/18 185/377/18 187/378/18 189/379/18 191/380/18 193/381/18 195/382/18 197/383/18 199/384/18
f 99/385/35 97/217/35 112/220/35 111/386/35
f 100/387/35 99/385/35 111/386/35 110/388/35
f 101/389/35 100/387/35 110/388/35 109/390/35
f 102/391/35 101/389/35 109/390/35 108/392/35
f 103/393/35 102/391/35 108/392/35 107/394/35
f 104/395/35 103/393/35 107/394/35 106/396/35
f 104/395/35 106/396/35 105/397/35
f 114/398/35 113/219/35 98/218/35 128/399/35
f 115/400/35 114/398/35 128/399/35 127/401/35
f 116/402/35 115/400/35 127/401/35 126/403/35
f 117/404/35 116/402/35 126/403/35 125/405/35
f 118/406/35 117/404/35 125/405/35 124/407/35
f 119/408/35 118/406/35 124/407/35 123/409/35
f 120/410/35 119/408/35 123/409/35 122/411/35
f 120/412/35 122/413/35 121/414/35
f 32/415/1 1/416/1 17/417/1 18/418/1
f 31/419/1 32/415/1 18/418/1 19/420/1
f 30/421/1 31/419/1 19/420/1 20/422/1
f 29/423/1 30/421/1 20/422/1 21/424/1
f 28/425/1 29/423/1 21/424/1 22/426/1
f 27/427/1 28/425/1 22/426/1 23/428/1
f 26/429/1 27/427/1 23/428/1 24/430/1
f 26/429/1 24/430/1 25/431/1
f 16/432/1 17/417/1 1/416/1 2/433/1
f 15/434/1 16/432/1 2/433/1 3/435/1
f 14/436/1 15/434/1 3/435/1 4/437/1
f 13/438/1 14/436/1 4/437/1 5/439/1
f 12/440/1 13/438/1 5/439/1 6/441/1
f 11/442/1 12/440/1 6/441/1 7/443/1
f 10/444/1 11/442/1 7/443/1 8/445/1
f 10/444/1 8/445/1 9/446/1
f 129/447/1 133/448/1 134/449/1 130/450/1
