# Blender 4.1.1
# www.blender.org
mtllib crystal.mtl
o Cube
v 0.330098 0.009021 0.669902
v 0.330098 0.089294 0.669902
v 0.330098 0.009021 0.330098
v 0.330098 0.089294 0.330098
v 0.669902 0.009021 0.669902
v 0.669902 0.089294 0.669902
v 0.669902 0.009021 0.330098
v 0.669902 0.089294 0.330098
v 0.437097 0.040119 0.545269
v 0.444510 0.490119 0.537855
v 0.437097 0.040119 0.419462
v 0.444510 0.490119 0.426876
v 0.562904 0.040119 0.545269
v 0.555490 0.490119 0.537855
v 0.562904 0.040119 0.419462
v 0.555490 0.490119 0.426876
v 0.555703 0.087010 0.520748
v 0.614846 0.353187 0.485969
v 0.491931 0.087010 0.412302
v 0.551074 0.353187 0.377523
v 0.660717 0.055608 0.458995
v 0.719860 0.321785 0.424216
v 0.596945 0.055608 0.350549
v 0.656088 0.321785 0.315770
v 0.479266 0.062533 0.595234
v 0.547961 0.436869 0.617177
v 0.517547 0.062533 0.475393
v 0.586242 0.436869 0.497336
v 0.596944 0.038734 0.632824
v 0.665639 0.413071 0.654767
v 0.635225 0.038734 0.512982
v 0.703919 0.413071 0.534925
v 0.433103 0.019257 0.638132
v 0.433103 0.372206 0.699409
v 0.433103 0.040777 0.514179
v 0.433103 0.393726 0.575456
v 0.558910 0.019257 0.638132
v 0.558910 0.372206 0.699409
v 0.558910 0.040777 0.514179
v 0.558910 0.393726 0.575456
v 0.350997 0.068203 0.591136
v 0.294702 0.304267 0.591136
v 0.350997 0.068203 0.465329
v 0.294702 0.304267 0.465329
v 0.473373 0.097387 0.591136
v 0.417077 0.333450 0.591136
v 0.473373 0.097387 0.465329
v 0.417077 0.333450 0.465329
v 0.442993 0.071822 0.549856
v 0.381092 0.366797 0.369733
v 0.409326 0.003580 0.449671
v 0.347425 0.298555 0.269548
v 0.562165 0.072213 0.509543
v 0.500264 0.367188 0.329419
v 0.528499 0.003972 0.409358
v 0.466597 0.298946 0.229234
vn -1.0000 -0.0000 -0.0000
vn -0.0000 -0.0000 -1.0000
vn 1.0000 -0.0000 -0.0000
vn -0.0000 -0.0000 1.0000
vn -0.0000 -1.0000 -0.0000
vn -0.0000 1.0000 -0.0000
vn -0.9999 0.0165 -0.0000
vn -0.0000 0.0165 -0.9999
vn 0.9999 0.0165 -0.0000
vn -0.0000 0.0165 0.9999
vn -0.8347 0.2496 0.4909
vn -0.5069 -0.0000 -0.8620
vn 0.8347 -0.2496 -0.4909
vn 0.5069 -0.0000 0.8620
vn -0.2152 -0.9683 0.1265
vn 0.2152 0.9683 -0.1265
vn -0.9354 0.1892 -0.2988
vn 0.3043 -0.0000 -0.9526
vn 0.9354 -0.1892 0.2988
vn -0.3043 -0.0000 0.9526
vn -0.1802 -0.9819 -0.0576
vn 0.1802 0.9819 0.0576
vn -0.0000 0.1711 -0.9853
vn -0.0000 -0.1711 0.9853
vn -0.0000 -0.9853 -0.1711
vn -0.0000 0.9853 0.1711
vn -0.9727 -0.2320 -0.0000
vn 0.9727 0.2320 -0.0000
vn 0.2320 -0.9727 -0.0000
vn -0.2320 0.9727 -0.0000
vn -0.9473 -0.0031 0.3204
vn -0.2676 -0.5424 -0.7963
vn 0.9473 0.0031 -0.3204
vn 0.2676 0.5424 0.7963
vn 0.1763 -0.8401 0.5130
vn -0.1763 0.8401 -0.5130
vt 0.859836 0.557958
vt 0.813790 0.557958
vt 0.813791 0.289948
vt 0.859836 0.289948
vt 0.922218 0.545250
vt 0.874418 0.545250
vt 0.874418 0.289948
vt 0.922218 0.289948
vt 0.915585 0.275301
vt 0.869540 0.275301
vt 0.869540 0.007291
vt 0.915585 0.007291
vt 0.862569 0.918555
vt 0.814770 0.918555
vt 0.814770 0.663254
vt 0.862569 0.663254
vt 0.007291 0.007385
vt 0.275226 0.007291
vt 0.275226 0.275272
vt 0.007291 0.275366
vt 0.289809 0.007291
vt 0.557743 0.007385
vt 0.557743 0.275366
vt 0.289809 0.275272
vt 0.109405 0.548072
vt 0.109405 0.289949
vt 0.196937 0.289949
vt 0.196937 0.548072
vt 0.309483 0.557905
vt 0.309483 0.289948
vt 0.392864 0.289949
vt 0.392864 0.557905
vt 0.007291 0.548072
vt 0.007291 0.289949
vt 0.094823 0.289949
vt 0.094823 0.548072
vt 0.211519 0.557905
vt 0.211520 0.289948
vt 0.294900 0.289948
vt 0.294900 0.557905
vt 0.767426 0.187435
vt 0.854933 0.187405
vt 0.854933 0.274926
vt 0.767426 0.274957
vt 0.207220 0.890312
vt 0.207220 0.802805
vt 0.294742 0.802775
vt 0.294742 0.890282
vt 0.767426 0.172822
vt 0.767426 0.007291
vt 0.854958 0.007291
vt 0.854958 0.172822
vt 0.712656 0.462018
vt 0.712656 0.296488
vt 0.799208 0.289948
vt 0.799208 0.455479
vt 0.712656 0.828784
vt 0.712656 0.663254
vt 0.800187 0.663254
vt 0.800187 0.828784
vt 0.712656 0.642132
vt 0.712656 0.476601
vt 0.799208 0.483141
vt 0.799208 0.648671
vt 0.877152 0.663254
vt 0.962148 0.663688
vt 0.962148 0.751193
vt 0.877152 0.750759
vt 0.877152 0.766210
vt 0.962148 0.765776
vt 0.962148 0.853280
vt 0.877152 0.853715
vt 0.610542 0.518428
vt 0.610542 0.289949
vt 0.698073 0.289949
vt 0.698073 0.518428
vt 0.508994 0.523478
vt 0.508994 0.294998
vt 0.595959 0.289949
vt 0.595959 0.518428
vt 0.572326 0.235771
vt 0.572326 0.007291
vt 0.659857 0.007291
vt 0.659857 0.235771
vt 0.407447 0.518428
vt 0.407446 0.289949
vt 0.494411 0.294998
vt 0.494411 0.523478
vt 0.713884 0.843367
vt 0.800187 0.843448
vt 0.800187 0.930977
vt 0.713884 0.930896
vt 0.874418 0.559913
vt 0.960721 0.559833
vt 0.960721 0.647362
vt 0.874418 0.647442
vt 0.108808 0.769549
vt 0.108808 0.562655
vt 0.195742 0.568347
vt 0.195742 0.775242
vt 0.309325 0.788192
vt 0.309325 0.577625
vt 0.392547 0.572488
vt 0.392547 0.783055
vt 0.007291 0.775242
vt 0.007291 0.568347
vt 0.094225 0.562655
vt 0.094225 0.769549
vt 0.211519 0.783055
vt 0.211519 0.572488
vt 0.294742 0.577625
vt 0.294742 0.788192
vt 0.395745 0.802775
vt 0.395745 0.890282
vt 0.309325 0.890555
vt 0.309325 0.803049
vt 0.007291 0.877331
vt 0.007291 0.789825
vt 0.093712 0.790098
vt 0.093712 0.877605
vt 0.610542 0.913610
vt 0.610542 0.767688
vt 0.698073 0.767688
vt 0.698073 0.913610
vt 0.108808 0.935258
vt 0.108808 0.789825
vt 0.191658 0.793836
vt 0.191658 0.939270
vt 0.508428 0.918659
vt 0.508428 0.772738
vt 0.595959 0.772738
vt 0.595959 0.918659
vt 0.410995 0.935619
vt 0.410995 0.790185
vt 0.493845 0.786174
vt 0.493845 0.931608
vt 0.007291 0.892473
vt 0.091999 0.892188
vt 0.091999 0.979709
vt 0.007291 0.979995
vt 0.877152 0.868298
vt 0.961859 0.868583
vt 0.961859 0.956105
vt 0.877152 0.955820
vt 0.415441 0.771591
vt 0.415441 0.553032
vt 0.493845 0.538060
vt 0.493845 0.756619
vt 0.610542 0.753038
vt 0.610542 0.533011
vt 0.698073 0.533079
vt 0.698073 0.753106
vt 0.674440 0.225850
vt 0.674440 0.007291
vt 0.752844 0.022263
vt 0.752844 0.240822
vt 0.508428 0.758155
vt 0.508428 0.538128
vt 0.595959 0.538060
vt 0.595959 0.758087
vt 0.207220 0.992426
vt 0.207220 0.904895
vt 0.291236 0.904934
vt 0.291236 0.992465
vt 0.393340 0.905138
vt 0.393340 0.992669
vt 0.309325 0.992709
vt 0.309325 0.905178
s 0
usemtl Material.001
f 1/1/1 2/2/1 4/3/1 3/4/1
f 3/5/2 4/6/2 8/7/2 7/8/2
f 7/9/3 8/10/3 6/11/3 5/12/3
f 5/13/4 6/14/4 2/15/4 1/16/4
f 3/17/5 7/18/5 5/19/5 1/20/5
f 8/21/6 4/22/6 2/23/6 6/24/6
f 9/25/7 10/26/7 12/27/7 11/28/7
f 11/29/8 12/30/8 16/31/8 15/32/8
f 15/33/9 16/34/9 14/35/9 13/36/9
f 13/37/10 14/38/10 10/39/10 9/40/10
f 11/41/5 15/42/5 13/43/5 9/44/5
f 16/45/6 12/46/6 10/47/6 14/48/6
f 17/49/11 18/50/11 20/51/11 19/52/11
f 19/53/12 20/54/12 24/55/12 23/56/12
f 23/57/13 24/58/13 22/59/13 21/60/13
f 21/61/14 22/62/14 18/63/14 17/64/14
f 19/65/15 23/66/15 21/67/15 17/68/15
f 24/69/16 20/70/16 18/71/16 22/72/16
f 25/73/17 26/74/17 28/75/17 27/76/17
f 27/77/18 28/78/18 32/79/18 31/80/18
f 31/81/19 32/82/19 30/83/19 29/84/19
f 29/85/20 30/86/20 26/87/20 25/88/20
f 27/89/21 31/90/21 29/91/21 25/92/21
f 32/93/22 28/94/22 26/95/22 30/96/22
f 33/97/1 34/98/1 36/99/1 35/100/1
f 35/101/23 36/102/23 40/103/23 39/104/23
f 39/105/3 40/106/3 38/107/3 37/108/3
f 37/109/24 38/110/24 34/111/24 33/112/24
f 35/113/25 39/114/25 37/115/25 33/116/25
f 40/117/26 36/118/26 34/119/26 38/120/26
f 41/121/27 42/122/27 44/123/27 43/124/27
f 43/125/2 44/126/2 48/127/2 47/128/2
f 47/129/28 48/130/28 46/131/28 45/132/28
f 45/133/4 46/134/4 42/135/4 41/136/4
f 43/137/29 47/138/29 45/139/29 41/140/29
f 48/141/30 44/142/30 42/143/30 46/144/30
f 49/145/31 50/146/31 52/147/31 51/148/31
f 51/149/32 52/150/32 56/151/32 55/152/32
f 55/153/33 56/154/33 54/155/33 53/156/33
f 53/157/34 54/158/34 50/159/34 49/160/34
f 51/161/35 55/162/35 53/163/35 49/164/35
f 56/165/36 52/166/36 50/167/36 54/168/36
